# xmcd
# 
# Track frame offsets:
#     183
#     24420
#     72858
#     109145
#     147495
#     185383
#     214495
#     239645
#     276683
#     297483
#     310995
# 
# Disc length: 4497
# 
# Revision: 6
# Processed by: cddbd v1.5.2PL0 Copyright (c) Steve Scherf et al.
# Submitted via: BonkEnc v1.0.8
# 
DISCID=bb118f0b
DTITLE=Brahms - Violin Sonatas  (Pierre Amoyal, violin - Pascal Rogé, piano)
DYEAR=0
DGENRE=Classique
TTITLE0=Scherzo in C minor
TTITLE1=Sonata for violin and piano N°1 in G major, Op.78 - I. Vivace ma non troppo
TTITLE2=Sonata for violin and piano N°1 in G major, Op.78 - II. Adagio
TTITLE3=Sonata for violin and piano N°1 in G major, Op.78 - III. Sonata 1 Allegro molto moderato
TTITLE4=Sonata for violin and piano N°2 in A major, Op.100 - I. Allegro amabile
TTITLE5=Sonata for violin and piano N°2 in A major, Op.100 - II. Andante tranquilo
TTITLE6=Sonata for violin and piano N°2 in A major, Op.100 - III. Allegretto grazioso (quasi andante)
TTITLE7=Sonata for violin and piano N°3 in A major, Op.108 - I. Allegro
TTITLE8=Sonata for violin and piano N°3 in A major, Op.108 - II. Adagio
TTITLE9=Sonata for violin and piano N°3 in A major, Op.108 - III. Un poco presto e con sentimento
TTITLE10=Sonata for violin and piano N°3 in A major, Op.108 - IV. Presto agitato
EXTD=
EXTT0=
EXTT1=
EXTT2=
EXTT3=
EXTT4=
EXTT5=
EXTT6=
EXTT7=
EXTT8=
EXTT9=
EXTT10=
PLAYORDER=
